<?xml version="1.0" encoding="UTF-8"?>
<svg id="mapa-brasil" xmlns="http://www.w3.org/2000/svg" viewBox="0 0 4845.91 1554.56">
  <path d="M69.1,1323.2l-27.6,47.8,27.6-47.8h0Zm-.3-656.5v656.5h.4l-27.6,47.8v34.3H1245.8v-34.3l-27.2-49.3h0V666l-36.5,.7V403.8h-24.2v-78.3c12-10,17.8-26.6,17.8-43.2,0-35.5-30.7-65.6-68-65.6s-68,29.7-68,65.6c0,16.6,5.8,29.7,18.7,44.4l.7,76.7h-24.8v262.9h-147.7v-230.5l7-15.4H399.2l7.2,15.4v191.3h0v39.3H253.3V403.1l-23.6,.4,1.2-78.3c12-10,17.8-26.6,17.8-43.2,0-35.5-30.7-65.6-68-65.6s-68,29.7-68,65.6c0,16.6,5.8,29.7,18.7,44.4l.7,76.7-23.3-.4v263.3h-39.6l-.4,.7h0Zm-39.7,21.6l-25.2-21.9H1.2v-39.3H69.2v-224h0v-39.3h21.7v-17.7c-9-17.7-17.8-40.1-17.8-62.1,0-52.4,39.3-96.7,89.3-105.6l.7-10.5c-4.2-4.2-7-10.5-7-17,0-8.1,3.9-15.4,10.5-20.1l6.5-72c-.7-1.2-1.2-2.6-1.2-3.8,0-4.6,3.9-8.1,8.1-8.1,4.6,0,8.1,3.8,8.1,8.1,0,1.2-.4,2.6-.7,3.5l7,72c6.5,4.2,10.9,11.9,10.9,20.4,0,7-2.7,12.7-7.4,17.3l1.2,10.5c49.7,9.3,88.6,53.5,88.6,105.6,0,22.4-9,44.4-17.8,62.1l-.4,17.7h22.5v39.3h0v224h73.8v-184.6l-21.7-20.4v-30.4l21.7-10.5h0l12.5-23.5h30.7l22.5,23.5h114.5l20.6-22h30.7l21,21.5h50.1l20.6-21.5h30.9l20.6,21.5h120l22.2-23.5h30.7l10.9,23.1,23.3,10.8v30.4l-21.7,20.4v184.9h68.7V365h23.6v-18.9c-9-17.7-17.8-40.1-17.8-62.1,0-51.6,38.4-96,87.8-105.2l1.2-10.8c-4.2-4.2-7.4-10.5-7.4-17.3,0-8.5,4.2-16.2,10.9-20.4l7.4-71.7c-.7-1.2-.7-2.3-.7-3.8,0-4.6,3.9-8.1,8.1-8.1,4.6,0,8.1,3.8,8.1,8.1,0,1.6-.4,2.6-.7,3.8l6.2,72.5c6.2,4.6,10.1,11.5,10.1,19.6,0,6.5-2.7,12.7-7,17l.7,10.5c50.5,8.5,90.2,53.2,90.2,106,0,22.4-9,44.4-17.8,62.1l-.4,18.5h24.5v261h64.5v39.3h-2.7l-25.2,22v222h26.4v37.4l-26.4,23.1v152.5h26.4v37.4l-26.4,23.1v139.2h0l26.4,24.7v58.9h.7v39.3H0v-39.5H1.6v-58.9l26.8-22.7h-.4v-139.2l-26.4-23.1v-37.4H28v-153l-26.4-23.1v-37.4H28l1.1-222.1h0Z" fill-rule="evenodd"/>
  <g>
    <path d="M1396.69,426.03V82.96h47.71V426.03h-47.71Z"/>
    <path d="M1693.71,426.03l-130.81-273.84V426.03h-43.09V82.96h60.02l126.19,265.19V82.96h43.6V426.03h-55.92Z"/>
    <path d="M1901.98,429.09c-29.75,0-61.04-7.13-91.82-24.94l15.9-36.14c24.62,12.73,48.22,20.87,73.36,20.87,38.47,0,58.99-18.83,58.99-51.92,0-73.3-149.79-63.62-149.79-168.48,0-53.45,37.96-88.57,100.03-88.57,30.27,0,61.05,8.14,86.18,22.91l-15.9,33.59c-20.52-9.67-45.66-17.31-67.71-17.31-36.94,0-54.89,18.83-54.89,45.81,0,71.26,150.3,62.1,150.3,167.97,0,61.59-42.06,96.2-104.65,96.2Z"/>
    <path d="M2154.87,123.18V426.03h-48.22V123.18h-80.03v-40.21h208.27v40.21h-80.03Z"/>
    <path d="M2275.42,426.03V82.96h47.71V426.03h-47.71Z"/>
    <path d="M2492.92,123.18V426.03h-48.22V123.18h-80.03v-40.21h208.27v40.21h-80.03Z"/>
    <path d="M2725.3,429.09c-77.97,0-111.83-36.14-111.83-107.91V82.96h47.71v236.18c0,48.36,16.42,69.73,66.69,69.73,53.35,0,66.17-25.45,66.17-70.24V82.96h47.71v233.12c0,66.68-31.81,113-116.45,113Z"/>
    <path d="M3011.54,123.18V426.03h-48.22V123.18h-80.03v-40.21h208.27v40.21h-80.03Z"/>
    <path d="M3255.72,429.09h-3.59c-99.52,0-132.35-55.48-132.35-173.06s46.68-176.12,133.89-176.12h3.08c99.01,0,132.35,55.99,132.35,173.57s-46.68,175.61-133.38,175.61Zm-2.05-308.96c-62.07,0-84.64,45.3-84.64,134.38,0,84.49,18.98,134.38,86.18,134.38,62.07,0,84.64-45.81,84.64-134.89,0-84.49-18.98-133.87-86.18-133.87Z"/>
    <path d="M1510.06,890.09c-86.69,0-125.68-40.72-125.68-172.04,0-122.67,47.19-177.13,133.89-177.13,30.78,0,67.2,10.69,89.26,22.91l-12.83,35.12c-25.65-11.2-51.81-18.32-71.3-18.32-61.56,0-89.77,40.21-89.77,136.41,0,101.29,24.62,133.36,80.54,133.36,14.88,0,31.8-3.56,47.71-9.67v-118.09h47.2v143.54c-28.73,15.78-68.23,23.92-99.01,23.92Z"/>
    <path d="M1800.41,890.09h-3.59c-99.52,0-132.35-55.48-132.35-173.06s46.68-176.12,133.89-176.12h3.08c99.01,0,132.35,55.99,132.35,173.57s-46.68,175.61-133.38,175.61Zm-2.05-308.96c-62.07,0-84.64,45.3-84.64,134.38,0,84.49,18.98,134.38,86.18,134.38,62.07,0,84.64-45.81,84.64-134.89,0-84.49-18.98-133.87-86.18-133.87Z"/>
    <path d="M2170.26,887.03l-130.81-273.84v273.84h-43.09v-343.07h60.02l126.19,265.19v-265.19h43.6v343.07h-55.92Z"/>
    <path d="M2407.26,890.09c-78.49,0-118.5-43.26-118.5-173.57,0-120.12,50.27-175.61,125.17-175.61,28.21,0,60.53,8.14,82.59,19.34l-13.34,38.18c-14.36-7.13-43.6-17.31-65.15-17.31-50.79,0-80.03,37.67-80.03,134.38,0,102.31,27.19,133.87,79,133.87,18.47,0,48.73-9.16,68.74-18.32l12.31,38.17c-28.73,13.74-62.58,20.87-90.8,20.87Zm-17.44,90.6h-36.42l24.11-69.22h46.68l-34.37,69.22Z"/>
    <path d="M2718.12,887.03l-18.47-70.75h-117.99l-18.98,70.75h-47.19l93.36-343.07h66.69l92.85,343.07h-50.27Zm-77.46-297.26h-1.03l-49.76,187.31h101.06l-50.27-187.31Z"/>
    <path d="M2813.53,887.03v-343.07h47.71v302.35h95.93v40.72h-143.64Z"/>
    <path d="M3122.35,890.09h-3.59c-99.52,0-132.35-55.48-132.35-173.06s46.68-176.12,133.89-176.12h3.08c99.01,0,132.35,55.99,132.35,173.57s-46.68,175.61-133.38,175.61Zm-2.05-308.96c-62.07,0-84.64,45.3-84.64,134.38,0,84.49,18.98,134.38,86.18,134.38,62.07,0,84.64-45.81,84.64-134.89,0-84.49-18.98-133.87-86.18-133.87Z"/>
    <path d="M3711.24,887.03l-18.98-290.13h-.51l-87.21,290.13h-37.45l-86.69-290.13h-.51l-18.98,290.13h-44.63l24.11-343.07h70.28l77.46,256.03h.51l76.43-256.03h68.23l24.11,343.07h-46.17Z"/>
    <path d="M3944.14,890.09h-3.59c-99.52,0-132.35-55.48-132.35-173.06s46.68-176.12,133.89-176.12h3.08c99.01,0,132.35,55.99,132.35,173.57s-46.68,175.61-133.38,175.61Zm-2.05-308.96c-62.07,0-84.64,45.3-84.64,134.38,0,84.49,18.98,134.38,86.18,134.38,62.07,0,84.64-45.81,84.64-134.89,0-84.49-18.98-133.87-86.18-133.87Z"/>
    <path d="M4313.99,887.03l-130.81-273.84v273.84h-43.09v-343.07h60.02l126.19,265.19v-265.19h43.6v343.07h-55.92Z"/>
    <path d="M4444.8,887.03v-343.07h47.71v343.07h-47.71Z"/>
    <path d="M4548.93,887.03v-34.61l137.99-268.24h-134.92v-40.21h186.21v34.1l-136.45,268.24h142.61v40.72h-195.45Z"/>
  </g>
  <g>
    <path d="M1452.27,1108.15v107.44h107.1v55.73h-107.1v168.34h-67.89v-387.23h184.93v55.73h-117.04Z" fill="#ff8d00"/>
    <path d="M1624.91,1439.65v-387.23h67.89v387.23h-67.89Z" fill="#ff8d00"/>
    <path d="M1915.76,1444.25h-4.1c-119.38,0-155.08-65.5-155.08-196.49,0-139.04,56.77-199.93,156.84-199.93h4.1c118.8,0,155.08,66.64,155.08,197.06,0,139.04-56.77,199.36-156.84,199.36Zm-1.76-340.69c-64.37,0-87.2,45.96-87.2,142.48,0,91.35,19.31,141.91,87.78,141.91,63.79,0,87.78-45.96,87.78-142.48s-19.9-141.91-88.37-141.91Z" fill="#ff8d00"/>
    <path d="M2259.86,1444.25c-91.29,0-136.94-49.98-136.94-197.06,0-135.01,56.77-199.36,144.55-199.36,33.36,0,69.06,9.19,94.22,21.83l-16.97,52.86c-15.8-8.04-46.23-18.38-69.06-18.38-52.67,0-83.1,37.92-83.1,141.91,0,109.73,28.68,140.76,81.93,140.76,19.31,0,51.5-9.77,73.15-18.96l15.8,52.86c-31.6,15.51-70.23,23.56-103.58,23.56Z" fill="#ff8d00"/>
    <path d="M2593.43,1439.65l-74.32-170.63h-40.38v170.63h-67.3v-386.65c32.77-1.15,76.66-1.15,111.19-1.15,95.39,0,133.43,39.07,133.43,103.99,0,46.54-23.99,85.03-70.23,98.82l84.86,185h-77.25Zm-75.49-334.37c-12.88,0-26.33,.57-39.21,1.15v109.73h38.04c55.01,0,69.64-25.85,69.64-56.88,0-33.32-11.71-54-68.47-54Z" fill="#ff8d00"/>
    <path d="M2856.2,1443.68c-93.05,0-133.43-41.94-133.43-125.82v-265.43h67.89v261.98c0,52.28,16.97,74.11,68.47,74.11,54.43,0,67.89-26.43,67.89-73.54v-262.56h67.89v257.96c0,79.28-38.04,133.29-138.7,133.29Z" fill="#ff8d00"/>
    <path d="M3052.24,1439.65v-47.69l148.65-283.81h-144.55v-55.73h218.29v47.11l-146.89,283.81h155.08v56.3h-230.58Z" fill="#ff8d00"/>
    <path d="M3561.95,1440.23c-32.19,0-63.79-.57-97.15-.57v-386.65c34.53-.58,64.96-1.15,97.73-1.15,87.2,0,134.01,28.73,134.01,101.12,0,41.37-19.31,72.39-59.11,83.31,50.91,9.19,71.4,43.66,71.4,88.48,0,72.96-51.5,115.48-146.89,115.48Zm-7.02-334.95c-11.12,0-17.56,.57-24.58,1.15v108.01c8.19,.58,13.46,.58,20.48,.58,70.23,0,81.35-25.85,81.35-56.88,0-33.32-12.88-52.86-77.25-52.86Zm-5.27,161.44c-5.85,0-11.71,.57-19.31,.57v118.35c9.95,1.15,16.39,1.15,28.09,1.15,73.15,0,81.93-31.02,81.93-60.9,0-33.32-14.04-59.18-90.71-59.18Z" fill="#ff8d00"/>
    <path d="M3963.99,1439.65l-18.73-74.11h-121.73l-18.73,74.11h-66.71l100.07-387.23h97.15l99.49,387.23h-70.81Zm-79-325.18h-1.75l-49.74,197.06h101.83l-50.33-197.06Z" fill="#ff8d00"/>
    <path d="M4285.86,1439.65v-171.21h-138.7v171.21h-67.89v-387.23h67.89v159.14h138.7v-159.14h67.89v387.23h-67.89Z" fill="#ff8d00"/>
    <path d="M4430.41,1439.65v-387.23h67.89v387.23h-67.89Z" fill="#ff8d00"/>
    <path d="M4768.66,1439.65l-18.73-74.11h-121.73l-18.73,74.11h-66.71l100.07-387.23h97.15l99.49,387.23h-70.81Zm-79-325.18h-1.75l-49.74,197.06h101.83l-50.33-197.06Z" fill="#ff8d00"/>
  </g>
</svg>